<svg width="117" height="345" viewBox="0 0 117 345" version="1.1" xmlns="http://www.w3.org/2000/svg" xmlns:xlink="http://www.w3.org/1999/xlink" xmlns:figma="http://www.figma.com/figma/ns">
<title>sprite</title>
<desc>Created using Figma</desc>
<g id="Canvas" transform="translate(1493 -418)" figma:type="canvas">
<mask id="mask0_alpha" mask-type="alpha">
<path d="M -1493 418L -1376 418L -1376 763L -1493 763L -1493 418Z" fill="#FFFFFF"/>
</mask>
<g id="sprite" style="mix-blend-mode:normal;" mask="url(#mask0_alpha)" figma:type="frame">
<g id="Vector" style="mix-blend-mode:normal;" figma:type="vector">
<use xlink:href="#path0_fill" transform="translate(-1440.9 732.587)" fill="#FFFFFF" style="mix-blend-mode:normal;"/>
</g>
<g id="Group" style="mix-blend-mode:normal;" figma:type="frame">
<g id="Vector" style="mix-blend-mode:normal;" figma:type="vector">
<use xlink:href="#path1_fill" transform="translate(-1440.89 675.487)" fill="#FFFFFF" style="mix-blend-mode:normal;"/>
</g>
<g id="Vector" style="mix-blend-mode:normal;" figma:type="vector">
<use xlink:href="#path2_fill" transform="translate(-1440.91 670.187)" fill="#FFFFFF" style="mix-blend-mode:normal;"/>
</g>
<g id="Vector" style="mix-blend-mode:normal;" figma:type="vector">
<use xlink:href="#path3_fill" transform="translate(-1436.49 674.787)" fill="#FFFFFF" style="mix-blend-mode:normal;"/>
</g>
</g>
<g id="Group" style="mix-blend-mode:normal;" figma:type="frame">
<g id="Vector" style="mix-blend-mode:normal;" figma:type="vector">
<use xlink:href="#path4_fill" transform="translate(-1459.41 561.667)" fill="#FFFFFF" style="mix-blend-mode:normal;"/>
</g>
</g>
<g id="Group" style="mix-blend-mode:normal;" figma:type="frame">
<g id="Vector" style="mix-blend-mode:normal;" figma:type="vector">
<use xlink:href="#path5_fill" transform="translate(-1452.11 453.612)" fill="#FFFFFF" style="mix-blend-mode:normal;"/>
</g>
</g>
</g>
</g>
<defs>
<path id="path0_fill" d="M 14.8 1.5C 14.3 1.7 13.7 1.9 13.1 2C 13.7 1.6 14.2 1 14.4 0.3C 13.8 0.6 13.2 0.9 12.5 1C 11.9 0.4 11.2 3.8147e-07 10.3 3.8147e-07C 8.6 3.8147e-07 7.3 1.4 7.3 3C 7.3 3.2 7.3 3.5 7.4 3.7C 4.9 3.6 2.7 2.4 1.2 0.5C 0.9 0.9 0.8 1.5 0.8 2C 0.8 3.1 1.3 4 2.1 4.5C 1.6 4.5 1.1 4.3 0.7 4.1C 0.7 5.6 1.7 6.8 3.1 7.1C 2.8 7.2 2.6 7.2 2.3 7.2C 2.1 7.2 1.9 7.2 1.7 7.1C 2.1 8.3 3.2 9.2 4.5 9.2C 3.5 10 2.2 10.5 0.7 10.5C 0.5 10.5 0.2 10.5 1.90735e-07 10.5C 1.3 11.4 2.9 11.9 4.6 11.9C 10.2 11.9 13.2 7.3 13.2 3.3C 13.2 3.2 13.2 3 13.2 2.9C 13.9 2.7 14.4 2.1 14.8 1.5Z"/>
<path id="path1_fill" d="M 10.5 -1.90735e-07C 10.7 -1.90735e-07 10.8 -1.90735e-07 11 -1.90735e-07C 12.2 -1.90735e-07 13.4 -1.90735e-07 14.6 -1.90735e-07C 14.6 0.2 14.6 0.4 14.6 0.6C 14.6 2.6 14.6 4.5 14.6 6.5C 14.6 8.3 13.4 9.5 11.7 9.5C 8.8 9.5 5.8 9.5 2.9 9.5C 1.2 9.5 1.52588e-06 8.2 1.52588e-06 6.5C 1.52588e-06 4.4 1.52588e-06 2.2 1.52588e-06 0.1C 1.4 0.1 2.8 0.1 4.2 0.1C 3.3 2.5 3.6 4.1 5.1 5.2C 6.4 6.2 8.2 6.2 9.5 5.3C 11 4.1 11.3 2.6 10.5 -1.90735e-07Z"/>
<path id="path2_fill" d="M 0.0244913 4.8C 0.0244913 3.3 -0.275512 1.7 1.22449 0.5C 1.22449 1.5 1.22449 2.3 1.22449 3.2C 1.22449 3.6 1.32449 3.7 1.82449 3.6C 1.82449 2.6 1.82449 1.6 1.82449 0.7C 1.82449 0.5 1.92449 0.3 2.02449 0.2C 2.12449 0.2 2.22449 0.2 2.32449 0.3C 2.32449 1.3 2.32449 2.3 2.32449 3.3C 2.32449 3.7 2.42449 3.9 2.92449 3.7C 2.92449 2.8 2.92449 1.9 2.92449 1C 2.92449 0.9 2.92449 0.7 2.92449 0.6C 2.92449 0.4 3.12449 0.3 3.12449 0.1C 3.22449 0.2 3.32449 0.4 3.32449 0.5C 3.32449 1.5 3.32449 2.6 3.32449 3.6C 3.72449 3.8 3.92449 3.7 3.92449 3.2C 3.92449 2.2 3.92449 1.1 3.92449 -3.8147e-07C 4.12449 -3.8147e-07 4.32449 -3.8147e-07 4.52449 -3.8147e-07C 6.92449 -3.8147e-07 9.32449 -3.8147e-07 11.6245 -3.8147e-07C 13.5245 -3.8147e-07 14.6245 1.2 14.6245 3.1C 14.6245 3.6 14.6245 4.2 14.6245 4.8C 14.4245 4.8 14.2245 4.8 14.1245 4.8C 13.3245 4.8 12.5245 4.8 11.7245 4.8C 10.8245 4.8 10.0245 4.7 9.12449 4.2C 7.72449 3.3 6.32449 3.6 5.02449 4.5C 4.82449 4.7 4.42449 4.8 4.12449 4.8C 2.72449 4.9 1.42449 4.8 0.0244913 4.8ZM 13.3245 2.5C 13.3245 1.2 13.3245 1.2 12.1245 1.2C 10.9245 1.2 10.9245 1.2 10.9245 2.4C 10.9245 3.7 10.9245 3.7 12.2245 3.7C 13.3245 3.8 13.3245 3.8 13.3245 2.5Z"/>
<path id="path3_fill" d="M 2.9 5.8C 1.3 5.8 3.05176e-06 4.5 3.05176e-06 2.9C 3.05176e-06 1.3 1.3 -1.77636e-15 2.9 -1.77636e-15C 4.5 -1.77636e-15 5.8 1.3 5.8 2.9C 5.8 4.5 4.5 5.8 2.9 5.8ZM 0.799998 2.9C 0.799998 4.1 1.7 5 2.9 5C 4.1 5 5 4.1 5 2.9C 5 1.7 4 0.8 2.9 0.8C 1.7 0.7 0.799998 1.7 0.799998 2.9Z"/>
<path id="path4_fill" d="M 0 3.32026C 0 2.72026 0.2 2.12026 0.5 1.52026C 1.5 0.0202576 3.5 -0.479742 5 0.520258L 24.9 13.1203L 44.8 0.520258C 46.3 -0.479742 48.4 0.0202576 49.3 1.52026C 50.3 3.02026 49.8 5.12026 48.3 6.02026L 26.6 19.7203C 25.5 20.4203 24.2 20.4203 23.1 19.7203L 1.4 6.02026C 0.6 5.52026 0 4.42026 0 3.32026Z"/>
<path id="path5_fill" d="M 1.90735e-07 12.075C 1.90735e-07 12.475 0.0999998 12.975 0.4 13.275C 1.1 14.375 2.5 14.675 3.6 13.975L 17.7 5.075L 31.8 13.975C 32.9 14.675 34.3 14.375 35 13.275C 35.7 12.175 35.4 10.775 34.3 10.075L 18.9 0.375C 18.1 -0.125 17.2 -0.125 16.4 0.375L 1.1 10.075C 0.4 10.475 1.90735e-07 11.275 1.90735e-07 12.075Z"/>
</defs>
</svg>
