<?xml version="1.0" encoding="utf-8"?>
<!-- Generator: Adobe Illustrator 16.0.0, SVG Export Plug-In . SVG Version: 6.00 Build 0)  -->
<!DOCTYPE svg PUBLIC "-//W3C//DTD SVG 1.1 Tiny//EN" "http://www.w3.org/Graphics/SVG/1.1/DTD/svg11-tiny.dtd">
<svg version="1.1" baseProfile="tiny" id="Layer_1" xmlns="http://www.w3.org/2000/svg" xmlns:xlink="http://www.w3.org/1999/xlink"
	 x="0px" y="0px" width="117px" height="345.1px" viewBox="0 0 117 345.1" xml:space="preserve">
<path fill="#81F8E2" d="M59.8,267.2h-3.6v-8.6h-1.8v-3h1.8v-1.8c0-2.4,1-3.8,3.8-3.8h2.4v3H61c-1.1,0-1.2,0.4-1.2,1.2l0,1.5h2.7
	l-0.3,3h-2.4V267.2z"/>
<path fill="#81F8E2" d="M68.3,313.6c-0.7,0.3-1.5,0.5-2.3,0.6c0.8-0.5,1.5-1.3,1.8-2.2c-0.8,0.5-1.6,0.8-2.5,1
	c-0.7-0.8-1.8-1.3-2.9-1.3c-2.2,0-4,1.8-4,4c0,0.3,0,0.6,0.1,0.9c-3.3-0.2-6.3-1.8-8.2-4.2c-0.3,0.6-0.5,1.3-0.5,2
	c0,1.4,0.7,2.6,1.8,3.3c-0.7,0-1.3-0.2-1.8-0.5c0,0,0,0,0,0.1c0,1.9,1.4,3.5,3.2,3.9c-0.3,0.1-0.7,0.1-1.1,0.1c-0.3,0-0.5,0-0.8-0.1
	c0.5,1.6,2,2.7,3.7,2.8c-1.4,1.1-3.1,1.7-5,1.7c-0.3,0-0.6,0-1-0.1c1.8,1.1,3.9,1.8,6.1,1.8c7.3,0,11.4-6.1,11.4-11.4
	c0-0.2,0-0.3,0-0.5C67,315.1,67.7,314.4,68.3,313.6z"/>
<g>
	<path fill="#FFFFFF" d="M34.5,147c0-0.6,0.2-1.2,0.5-1.8c1-1.5,3-2,4.5-1l19.9,12.6l19.9-12.6c1.5-1,3.6-0.5,4.5,1
		c1,1.5,0.5,3.6-1,4.5l-21.7,13.7c-1.1,0.7-2.4,0.7-3.5,0l-21.7-13.7C35.1,149.2,34.5,148.1,34.5,147z"/>
</g>
<g>
	<path fill="#FFFFFF" d="M41.8,47.7c0,0.4,0.1,0.9,0.4,1.2c0.7,1.1,2.1,1.4,3.2,0.7l14.1-8.9l14.1,8.9c1.1,0.7,2.5,0.4,3.2-0.7
		c0.7-1.1,0.4-2.5-0.7-3.2L60.7,36c-0.8-0.5-1.7-0.5-2.5,0l-15.3,9.7C42.2,46.1,41.8,46.9,41.8,47.7z"/>
</g>
</svg>
