<?xml version="1.0" encoding="utf-8"?>
<!-- Generator: Adobe Illustrator 16.0.0, SVG Export Plug-In . SVG Version: 6.00 Build 0)  -->
<!DOCTYPE svg PUBLIC "-//W3C//DTD SVG 1.1//EN" "http://www.w3.org/Graphics/SVG/1.1/DTD/svg11.dtd">
<svg version="1.1" id="Layer_1" xmlns="http://www.w3.org/2000/svg" xmlns:xlink="http://www.w3.org/1999/xlink" x="0px" y="0px"
	 width="39px" height="115px" viewBox="0 0 39 115" style="enable-background:new 0 0 39 115;" xml:space="preserve">
<style type="text/css">
<![CDATA[
	.st0{fill:#81F8E2;}
]]>
</style>
<path class="st0" d="M21.3,37.1h-3.6v-8.6H16v-3h1.8v-1.8c0-2.4,1-3.8,3.8-3.8H24v3h-1.5c-1.1,0-1.2,0.4-1.2,1.2l0,1.5H24l-0.3,3
	h-2.4V37.1z"/>
<path class="st0" d="M29.7,83.5c-0.7,0.3-1.5,0.5-2.3,0.6c0.8-0.5,1.5-1.3,1.8-2.2c-0.8,0.5-1.6,0.8-2.5,1c-0.7-0.8-1.8-1.3-2.9-1.3
	c-2.2,0-4,1.8-4,4c0,0.3,0,0.6,0.1,0.9c-3.3-0.2-6.3-1.8-8.2-4.2c-0.3,0.6-0.5,1.3-0.5,2c0,1.4,0.7,2.6,1.8,3.3
	c-0.7,0-1.3-0.2-1.8-0.5c0,0,0,0,0,0.1c0,1.9,1.4,3.5,3.2,3.9c-0.3,0.1-0.7,0.1-1.1,0.1c-0.3,0-0.5,0-0.8-0.1c0.5,1.6,2,2.7,3.7,2.8
	c-1.4,1.1-3.1,1.7-5,1.7c-0.3,0-0.6,0-1-0.1c1.8,1.1,3.9,1.8,6.1,1.8c7.3,0,11.4-6.1,11.4-11.4c0-0.2,0-0.3,0-0.5
	C28.5,85,29.2,84.3,29.7,83.5z"/>
</svg>
